<?xml version="1.0" encoding="UTF-8"?> <svg xmlns="http://www.w3.org/2000/svg" width="137" height="32" viewBox="0 0 137 32" fill="none"><g clip-path="url(#clip0_801_14068)"><path d="M20.3598 15.8687C19.7481 14.4698 18.9617 13.2895 17.9569 12.4589C16.952 11.5846 15.8161 10.9288 14.5928 10.4917C13.3259 10.0545 12.0152 9.83594 10.6171 9.83594C9.26278 9.83594 7.95211 10.0545 6.77251 10.448C5.59291 10.8851 4.58806 11.4097 3.80166 12.1529C2.97157 12.8523 2.27255 13.6829 1.70459 14.6447C1.13663 15.6064 0.699744 16.6119 0.393921 17.7048C0.0880982 18.7977 -0.0429688 19.8906 -0.0429688 21.0272C-0.0429688 23.1256 0.393921 25.0053 1.31139 26.6665C2.18517 28.3277 3.45215 29.6392 5.11233 30.601C6.77251 31.5627 8.65114 31.9999 10.7482 31.9999C13.3695 31.9999 15.5103 31.3441 17.1705 30.0764C18.6996 28.9398 19.7918 27.4534 20.4908 25.6611C20.5782 25.3988 20.4035 25.1365 20.1413 25.1365H16.3404C16.0783 25.1365 15.8161 25.2676 15.6851 25.4862C15.2919 26.1857 14.7239 26.754 13.9812 27.2348C13.1074 27.8032 12.0152 28.1092 10.7919 28.1092C9.1754 28.1092 7.82105 27.5846 6.68513 26.5791C6.07349 26.0108 5.59291 25.3551 5.2434 24.5682C5.19971 24.4807 5.15602 24.3933 5.15602 24.3059C5.11233 24.131 5.02495 23.9999 4.98126 23.825C4.93757 23.6939 4.89389 23.519 4.8502 23.3878C4.80651 23.3004 4.80651 23.1693 4.76282 23.0818C4.76282 23.0381 4.76282 23.0381 4.76282 22.9944C4.71913 22.8195 4.71913 22.6884 4.67544 22.5572C4.67544 22.5135 4.67544 22.4698 4.67544 22.4261C4.63175 21.9889 4.63175 21.7704 4.63175 21.7704H5.15602C5.19971 21.7704 5.19971 21.7704 5.2434 21.7704H20.5345C20.753 21.7704 20.884 21.7266 21.0151 21.5955C21.1462 21.4644 21.1899 21.3332 21.1899 21.1146V20.59C21.2772 18.8851 20.9714 17.2676 20.3598 15.8687ZM4.93757 18.4042C4.93757 18.1857 4.98126 18.0108 5.02495 17.8359C5.02495 17.7922 5.06864 17.7485 5.06864 17.6611C5.11233 17.5299 5.15602 17.3551 5.19971 17.2239C5.28709 17.0491 5.33077 16.8742 5.41815 16.743C5.41815 16.6993 5.46184 16.6556 5.46184 16.6119C5.50553 16.4807 5.59291 16.3933 5.59291 16.3059C5.59291 16.2622 5.6366 16.2185 5.6366 16.2185C6.0298 15.5627 6.51038 14.9944 7.12202 14.5572C8.12687 13.8141 9.30647 13.4644 10.7482 13.4644C12.1463 13.4644 13.3695 13.8141 14.4181 14.5572C15.0734 14.9944 15.554 15.5627 15.9472 16.2185C15.9472 16.2185 15.9472 16.2622 15.9909 16.2622C15.9909 16.3059 16.0346 16.3496 16.0783 16.3933C16.1219 16.437 16.1219 16.4807 16.1656 16.5245C16.2093 16.5682 16.2093 16.6556 16.253 16.6993C16.4278 17.1365 16.6899 17.7485 16.7336 18.3605H4.93757V18.4042Z" fill="#172B4C"></path><path d="M65.3598 15.8687C64.7481 14.4698 63.9617 13.2895 62.9569 12.4589C61.9521 11.5846 60.8161 10.9288 59.5928 10.4917C58.3259 10.0545 57.0152 9.83594 55.6171 9.83594C54.2628 9.83594 52.9521 10.0545 51.7725 10.448C50.5929 10.8851 49.5881 11.4097 48.8017 12.1529C47.9716 12.8523 47.2725 13.6829 46.7046 14.6447C46.1366 15.6064 45.6997 16.6119 45.3939 17.7048C45.0881 18.7977 44.957 19.8906 44.957 21.0272C44.957 23.1256 45.3939 25.0053 46.3114 26.6665C47.1852 28.3277 48.4521 29.6392 50.1123 30.601C51.7725 31.5627 53.6511 31.9999 55.7482 31.9999C58.3696 31.9999 60.5103 31.3441 62.1705 30.0764C63.6996 28.9398 64.7918 27.4534 65.4909 25.6611C65.5782 25.3988 65.4035 25.1365 65.1413 25.1365H61.3404C61.0783 25.1365 60.8161 25.2676 60.6851 25.4862C60.2919 26.1857 59.7239 26.754 58.9812 27.2348C58.1074 27.8032 57.0152 28.1092 55.7919 28.1092C54.1754 28.1092 52.8211 27.5846 51.6851 26.5791C51.0735 26.0108 50.5929 25.3551 50.2434 24.5682C50.1997 24.4807 50.156 24.3933 50.156 24.3059C50.1123 24.131 50.025 23.9999 49.9813 23.825C49.9376 23.6939 49.8939 23.519 49.8502 23.3878C49.8065 23.3004 49.8065 23.1693 49.7628 23.0818C49.7628 23.0381 49.7628 23.0381 49.7628 22.9944C49.7191 22.8195 49.7191 22.6884 49.6754 22.5572C49.6754 22.5135 49.6754 22.4698 49.6754 22.4261C49.6318 21.9889 49.6318 21.7704 49.6318 21.7704H50.156C50.1997 21.7704 50.1997 21.7704 50.2434 21.7704H65.5345C65.753 21.7704 65.8841 21.7266 66.0151 21.5955C66.1462 21.4644 66.1899 21.3332 66.1899 21.1146V20.59C66.2336 18.8851 65.9278 17.2676 65.3598 15.8687ZM49.8939 18.4042C49.8939 18.1857 49.9376 18.0108 49.9813 17.8359C49.9813 17.7922 50.025 17.7485 50.025 17.6611C50.0686 17.5299 50.1123 17.3551 50.156 17.2239C50.2434 17.0491 50.2871 16.8742 50.3745 16.743C50.3745 16.6993 50.4182 16.6556 50.4182 16.6119C50.4618 16.4807 50.5492 16.3933 50.5492 16.3059C50.5492 16.2622 50.5929 16.2185 50.5929 16.2185C50.9861 15.5627 51.4667 14.9944 52.0783 14.5572C53.0832 13.8141 54.2628 13.4644 55.7045 13.4644C57.1026 13.4644 58.3259 13.8141 59.3744 14.5572C60.0297 14.9944 60.5103 15.5627 60.9035 16.2185C60.9035 16.2185 60.9035 16.2622 60.9472 16.2622C60.9472 16.3059 60.9909 16.3496 61.0346 16.3933C61.0783 16.437 61.0783 16.4807 61.122 16.5245C61.1656 16.5682 61.1656 16.6556 61.2093 16.6993C61.3841 17.1365 61.6462 17.7485 61.6899 18.3605H49.8939V18.4042Z" fill="#172B4C"></path><path d="M42.1163 10.1421H38.5338C38.1406 10.1421 37.9222 10.317 37.8348 10.6667L34.0339 22.6011L33.4222 24.4809L33.0727 25.5738L32.6795 24.3497L32.1552 22.6011L28.4854 10.6667C28.3543 10.317 28.1358 10.1421 27.7863 10.1421H24.1601C23.6796 10.1421 23.5048 10.3607 23.6359 10.8415L31.1067 31.1694C31.2378 31.5192 31.4562 31.694 31.8494 31.694H34.4271C34.7766 31.694 35.0387 31.5192 35.1261 31.1694L42.6406 10.8415C42.7716 10.4044 42.5969 10.1421 42.1163 10.1421Z" fill="#172B4C"></path><path d="M82.1779 9.79248H82.0468C81.0856 9.79248 80.0808 10.0111 79.0323 10.4919C77.9837 10.9728 77.11 11.5848 76.4109 12.4154C76.2799 12.5903 76.1051 12.634 75.974 12.634C75.843 12.5903 75.7556 12.4591 75.7556 12.2406V10.7979C75.7556 10.6231 75.7119 10.4482 75.5809 10.3608C75.4498 10.2296 75.3187 10.1859 75.144 10.1859H71.9984C71.6052 10.1859 71.3867 10.4045 71.3867 10.7979V31.0384C71.3867 31.4755 71.6052 31.6504 71.9984 31.6504H75.3187C75.7119 31.6504 75.9304 31.4318 75.9304 31.0384V20.7652C75.9304 18.7105 76.4109 17.1367 77.3284 15.9564C78.2896 14.7761 79.6439 14.2078 81.4788 14.2078H82.1779C82.3526 14.2078 82.5274 14.1641 82.6148 14.0329C82.7021 13.9018 82.7895 13.7706 82.7895 13.5958V10.4045C82.8332 9.96734 82.6148 9.79248 82.1779 9.79248Z" fill="#172B4C"></path><path d="M126.087 25.661L136.354 13.6828C136.529 13.4642 136.616 13.2457 136.616 12.9396V10.7976C136.616 10.6227 136.573 10.4478 136.442 10.3604C136.311 10.2293 136.18 10.1855 136.005 10.1855H119.447C119.272 10.1855 119.097 10.2293 119.01 10.3604C118.922 10.4478 118.835 10.6227 118.835 10.7976V13.2019C118.835 13.3768 118.879 13.5517 119.01 13.6391C119.141 13.7702 119.272 13.814 119.447 13.814H131.155L130.587 14.4697L127.267 18.273L118.442 28.4151C118.267 28.6336 118.18 28.8522 118.18 29.1582V31.038C118.18 31.2129 118.223 31.3877 118.354 31.4752C118.486 31.5626 118.617 31.65 118.791 31.65H135.917C136.092 31.65 136.267 31.6063 136.354 31.4752C136.485 31.344 136.529 31.2129 136.529 31.038V28.6336C136.529 28.4588 136.485 28.2839 136.354 28.1965C136.267 28.0653 136.092 28.0216 135.917 28.0216H124.034L124.602 27.3659L126.087 25.661Z" fill="#172B4C"></path><path d="M127.266 18.2735L130.542 14.4702L131.11 13.8145" fill="#172B4C"></path><path d="M124.035 28.0218L124.559 27.4098L126.089 25.6611" fill="#172B4C"></path><path d="M104.066 10.1421H100.484C100.091 10.1421 99.8721 10.317 99.7847 10.6667L95.9838 22.6011L95.3721 24.4809L95.0226 25.5738L94.6294 24.3497L94.1052 22.6011L90.4353 10.7104C90.3042 10.3607 90.0858 10.1858 89.7363 10.1858H86.0664C85.5858 10.1858 85.4111 10.4044 85.5421 10.8853L93.0129 31.2131C93.144 31.5629 93.3625 31.7377 93.7557 31.7377H96.3333C96.6828 31.7377 96.945 31.5629 97.0323 31.2131L104.547 10.8853C104.722 10.4044 104.547 10.1421 104.066 10.1421Z" fill="#172B4C"></path><path d="M112.674 10.1421H109.354C108.961 10.1421 108.742 10.3607 108.742 10.7541V31.0383C108.742 31.4754 108.961 31.6503 109.354 31.6503H112.674C113.067 31.6503 113.286 31.4317 113.286 31.0383V10.7978C113.286 10.3607 113.111 10.1421 112.674 10.1421Z" fill="#172B4C"></path><path d="M112.979 0.743169C112.455 0.262295 111.843 0 111.057 0C110.271 0 109.615 0.262295 109.091 0.743169C108.567 1.22404 108.305 1.87978 108.305 2.62295C108.305 3.40984 108.567 4.02186 109.091 4.50273C109.615 5.02732 110.271 5.2459 111.057 5.2459C111.843 5.2459 112.499 4.98361 112.979 4.50273C113.504 3.97814 113.766 3.36612 113.766 2.62295C113.81 1.87978 113.547 1.26776 112.979 0.743169Z" fill="#FF495E"></path></g><defs><clipPath id="clip0_801_14068"><rect width="136.615" height="32" fill="white"></rect></clipPath></defs></svg> 